<?xml version="1.0" encoding="utf-8"?>
<!-- Generator: Adobe Illustrator 24.0.2, SVG Export Plug-In . SVG Version: 6.00 Build 0)  -->
<svg version="1.1" id="Layer_1" xmlns="http://www.w3.org/2000/svg" xmlns:xlink="http://www.w3.org/1999/xlink" x="0px" y="0px"
	 viewBox="0 0 512 512" style="enable-background:new 0 0 512 512;" xml:space="preserve">
<style type="text/css">
	.st0{fill:#98FF98;}
	.st1{fill:#5DC460;}
</style>
<path class="st0" d="M401.1,435.2H110.9V384c0-18.8,15.4-34.1,34.1-34.1h221.9c18.8,0,34.1,15.4,34.1,34.1L401.1,435.2L401.1,435.2z
	"/>
<path class="st0" d="M110.9,384c0-12.8,6.8-23.9,17.9-29.9l2.6-55.5H76.8v102.4c0,9.4,7.7,17.1,17.1,17.1h17.1L110.9,384L110.9,384z
	"/>
<path class="st0" d="M380.6,298.7l3.4,55.5c10.2,6,17.9,17.1,17.9,29.9v34.1H419c9.4,0,17.1-7.7,17.1-17.1V298.7L380.6,298.7
	L380.6,298.7z"/>
<path class="st0" d="M145.1,349.9h221.9c6,0,11.1,1.7,16.2,4.3l-12.8-233c-1.7-34.1-30.7-61.4-64.9-61.4h-99
	c-35,0-63.1,27.3-64.9,61.4l-12.8,233C134,351.6,139.1,349.9,145.1,349.9"/>
<path class="st1" d="M371.2,121.2c-1.7-34.1-30.7-61.4-64.9-61.4h-24.7c35,0,63.1,27.3,64.9,61.4l12.8,228.7h8.5
	c6,0,11.1,1.7,16.2,4.3L371.2,121.2z"/>
<g>
	<g>
		<g>
			<path class="st0" d="M134,264.5H68.3c-5.1,0-8.5,3.4-8.5,8.5v17.1c0,5.1,3.4,8.5,8.5,8.5h63.1L134,264.5z"/>
		</g>
		<path class="st0" d="M378,264.5l1.7,34.1h64c5.1,0,8.5-3.4,8.5-8.5v-17.1c0-5.1-3.4-8.5-8.5-8.5H378L378,264.5z"/>
	</g>
</g>
<path class="st1" d="M418.1,298.7v102.4c0,9.4-7.7,17.1-17.1,17.1h17.1c9.4,0,17.1-7.7,17.1-17.1V298.7L418.1,298.7L418.1,298.7z"/>
<path class="st1" d="M443.7,264.5h-17.1c5.1,0,8.5,3.4,8.5,8.5v17.1c0,5.1-3.4,8.5-8.5,8.5h17.1c5.1,0,8.5-3.4,8.5-8.5v-17.1
	C452.3,267.9,448.9,264.5,443.7,264.5"/>
<g>
	<g>
		<g>
			<path class="st0" d="M93.9,298.7v102.4c0,9.4,7.7,17.1,17.1,17.1H93.9c-9.4,0-17.1-7.7-17.1-17.1V298.7L93.9,298.7L93.9,298.7z"
				/>
		</g>
		<path class="st0" d="M68.3,264.5h17.1c-5.1,0-8.5,3.4-8.5,8.5v17.1c0,5.1,3.4,8.5,8.5,8.5H68.3c-5.1,0-8.5-3.4-8.5-8.5v-17.1
			C59.7,267.9,63.1,264.5,68.3,264.5"/>
	</g>
</g>
<path d="M401.1,443.7H110.9c-5.1,0-8.5-3.4-8.5-8.5V384c0-23.9,18.8-42.7,42.7-42.7h221.9c23.9,0,42.7,18.8,42.7,42.7v51.2
	C409.6,440.3,406.2,443.7,401.1,443.7z M119.5,426.7h273.1V384c0-14.5-11.1-25.6-25.6-25.6H145.1c-14.5,0-25.6,11.1-25.6,25.6V426.7
	z"/>
<path d="M131.4,307.2H68.3c-9.4,0-17.1-7.7-17.1-17.1v-17.1c0-9.4,7.7-17.1,17.1-17.1H134c2.6,0,4.3,0.9,6,2.6
	c1.7,1.7,2.6,4.3,2.6,6l-1.7,34.1C139.9,303.8,136.5,307.2,131.4,307.2z M68.3,273.1v17.1h55.5l0.9-17.1H68.3z"/>
<path d="M443.7,307.2h-63.1c-4.3,0-8.5-3.4-8.5-7.7l-1.7-34.1c0-2.6,0.9-4.3,2.6-6c1.7-1.7,4.3-2.6,6-2.6h64.9
	c9.4,0,17.1,7.7,17.1,17.1V291C460.8,299.5,453.1,307.2,443.7,307.2z M388.3,290.1h55.5v-17.1h-56.3L388.3,290.1z"/>
<path d="M110.9,426.7H93.9c-14.5,0-25.6-11.1-25.6-25.6V298.7c0-5.1,3.4-8.5,8.5-8.5h54.6c2.6,0,4.3,0.9,6,2.6
	c1.7,1.7,2.6,4.3,2.6,6l-3.4,55.5c0,2.6-1.7,6-4.3,6.8c-7.7,5.1-12.8,13.7-12.8,23v34.1C119.5,423.3,116.1,426.7,110.9,426.7z
	 M85.3,307.2v93.9c0,5.1,3.4,8.5,8.5,8.5h8.5V384c0-13.7,6.8-26.5,17.9-35l2.6-41.8H85.3z"/>
<path d="M418.1,426.7h-17.1c-5.1,0-8.5-3.4-8.5-8.5V384c0-9.4-5.1-17.9-13.7-22.2c-2.6-1.7-4.3-4.3-4.3-6.8l-3.4-55.5
	c0-2.6,0.9-4.3,2.6-6c1.7-1.7,4.3-2.6,6-2.6h55.5c5.1,0,8.5,3.4,8.5,8.5v102.4C443.7,415.6,432.6,426.7,418.1,426.7z M409.6,409.6
	h8.5c5.1,0,8.5-3.4,8.5-8.5v-93.9h-37.5l2.6,41.8c11.1,7.7,17.9,20.5,17.9,35V409.6L409.6,409.6z"/>
<path d="M128.9,362.7c-1.7,0-3.4-0.9-4.3-1.7c-2.6-1.7-4.3-4.3-4.3-7.7l12.8-232.1c2.6-39.3,34.1-70,73.4-70h99
	c39.3,0,71.7,30.7,73.4,70l12.8,233c0,3.4-1.7,6-4.3,7.7s-6,1.7-8.5,0c-3.4-2.6-7.7-3.4-11.9-3.4H145.1c-4.3,0-8.5,0.9-11.9,3.4
	C131.4,362.7,129.7,362.7,128.9,362.7z M145.1,341.3h221.9c2.6,0,5.1,0,6.8,0.9L361.8,122c-1.7-29.9-26.5-53.8-56.3-53.8h-99
	c-29.9,0-54.6,23.9-56.3,53.8l-11.9,220.2C139.9,341.3,142.5,341.3,145.1,341.3z"/>
<path d="M336.2,131.4c-4.3,0-8.5-3.4-8.5-7.7c-0.9-11.9-10.2-21.3-22.2-21.3h-99c-11.9,0-21.3,9.4-22.2,21.3c0,5.1-4.3,8.5-9.4,7.7
	c-5.1,0-8.5-4.3-7.7-9.4c0.9-20.5,18.8-36.7,39.3-36.7h99c21.3,0,38.4,16.2,39.3,37.5C344.7,127.1,341.3,131.4,336.2,131.4
	L336.2,131.4z"/>
</svg>
