<?xml version="1.0" encoding="utf-8"?>
<!-- Generator: Adobe Illustrator 24.0.2, SVG Export Plug-In . SVG Version: 6.00 Build 0)  -->
<svg version="1.1" id="Layer_1" xmlns="http://www.w3.org/2000/svg" xmlns:xlink="http://www.w3.org/1999/xlink" x="0px" y="0px"
	 viewBox="0 0 512 512" style="enable-background:new 0 0 512 512;" xml:space="preserve">
<style type="text/css">
	.st0{fill:#FFFFFF;stroke:#1D1D1B;stroke-width:5;stroke-miterlimit:10;}
</style>
<g>
	<path class="st0" d="M406.6,450.6H106.4v-53c0-19.5,15.8-35.3,35.3-35.3h229.5c19.5,0,35.3,15.8,35.3,35.3L406.6,450.6L406.6,450.6
		z"/>
	<path class="st0" d="M130,274H62.3c-4.9,0-8.8,4-8.8,8.8v17.7c0,4.9,4,8.8,8.8,8.8H128L130,274z"/>
	<path class="st0" d="M383,274l2,35.3h65.7c4.9,0,8.8-4,8.8-8.8v-17.7c0-4.9-4-8.8-8.8-8.8H383z"/>
</g>
<g>
	<path class="st0" d="M106.4,397.6c0-13.3,7.5-24.8,18.4-30.8l3.2-57.5H71.1v105.9c0,9.8,7.9,17.7,17.7,17.7h17.7V397.6z"/>
	<path class="st0" d="M385,309.4l3.2,57.5c10.9,6,18.4,17.5,18.4,30.8v35.3h17.7c9.8,0,17.7-7.9,17.7-17.7V309.4H385z"/>
</g>
<path class="st0" d="M141.7,362.3h229.5c6.2,0,11.9,1.7,16.9,4.5l-13.4-241c-2-35.7-31.5-63.6-67.3-63.6H205.5
	c-35.8,0-65.3,27.9-67.3,63.6l-13.4,241C129.9,364,135.6,362.3,141.7,362.3"/>
<path class="st0" d="M339.5,136.6c-4.7,0-8.5-3.6-8.8-8.3c-0.7-12.3-10.9-21.9-23.2-21.9H205.5c-12.3,0-22.5,9.6-23.2,21.9
	c-0.3,4.9-4.4,8.5-9.3,8.3c-4.9-0.3-8.6-4.4-8.3-9.3c1.2-21.7,19.1-38.6,40.8-38.6h102.1c21.7,0,39.6,17,40.8,38.6
	c0.3,4.9-3.5,9-8.3,9.3C339.9,136.6,339.7,136.6,339.5,136.6"/>
</svg>
