<?xml version="1.0" encoding="utf-8"?>
<!-- Generator: Adobe Illustrator 24.0.2, SVG Export Plug-In . SVG Version: 6.00 Build 0)  -->
<svg version="1.1" id="Layer_1" xmlns="http://www.w3.org/2000/svg" xmlns:xlink="http://www.w3.org/1999/xlink" x="0px" y="0px"
	 viewBox="0 0 418.4 258.52" style="enable-background:new 0 0 418.4 258.52;" xml:space="preserve">
<style type="text/css">
	.st0{fill:#4383BA;}
	.st1{fill:#56B3CC;}
	.st2{fill:#B3E0E2;}
	.st3{fill:#E2CFC8;}
	.st4{fill:#D6C4C1;}
	.st5{fill:#F1DDD3;}
	.st6{fill:#A98487;}
	.st7{fill:#F9E2DB;}
	.st8{fill:#32433F;}
	.st9{fill:#FFECD9;}
	.st10{fill:#F5C575;}
	.st11{fill:#F5D482;}
	.st12{fill:#F5EDC8;}
	.st13{fill:#F5DBB1;}
	.st14{fill:#F5B56B;}
	.st15{fill:#E53E31;}
	.st16{fill:#E6E6E6;}
	.st17{fill:#F3DDCF;}
	.st18{fill:#FFE2C4;}
	.st19{fill:#0E1416;}
	.st20{fill:#595A4C;}
	.st21{fill:#464646;}
	.st22{fill:#EA2C00;}
	.st23{fill:#214D6E;}
</style>
<g>
	<path class="st0" d="M114.79,105.14l-1.64,17.02l-1.49,15.45l-3.34,34.55l-0.4,4.15l-0.4,4.09l-1.82,18.81l-0.66,6.9l-1.68,17.38
		c-0.29,3-2.36,5.52-5.23,6.41c-1.27,0.35-2.61,0.68-4.03,1.01c-0.47,0.11-0.95,0.21-1.44,0.31c-0.32,0.07-0.64,0.14-0.97,0.2
		c-0.37,0.08-0.74,0.15-1.11,0.22c-0.82,0.15-1.67,0.31-2.53,0.45c-0.33,0.05-0.66,0.11-0.99,0.16c-0.41,0.06-0.82,0.12-1.24,0.18
		c-0.39,0.06-0.77,0.11-1.17,0.16c-0.39,0.05-0.79,0.1-1.2,0.15c-0.36,0.04-0.71,0.08-1.07,0.12c-0.94,0.1-1.91,0.19-2.89,0.26
		c-2.48,0.19-5.08,0.3-7.78,0.3c-0.29,0-0.58,0-0.87,0c-8.96-0.07-16.76-1.33-23.05-2.85c-0.01,0-0.02,0-0.03-0.01
		c-0.25-0.06-0.49-0.12-0.73-0.18c-0.15-0.04-0.31-0.08-0.46-0.12c-0.41-0.1-0.81-0.21-1.21-0.31c-2.85-0.79-4.96-3.2-5.39-6.11
		c-0.02-0.11-0.03-0.22-0.04-0.34c-0.88-8.3-1.76-16.59-2.64-24.88c-0.1-0.94-0.2-1.89-0.3-2.84c-0.4-3.76-0.8-7.53-1.2-11.29
		c-1.11-10.49-2.23-20.98-3.34-31.47c-1.09-10.28-2.18-20.57-3.28-30.86c-0.6-5.68-1.21-11.35-1.81-17.03H114.79z"/>
	<path class="st1" d="M111.66,137.62l-3.34,34.55c-14.72,10.07-29.88,15.26-45.67,9.55c-13.07-4.73-20.14-4.08-26.84,2.79
		c-1.11-10.49-2.23-20.98-3.34-31.47c0,0,8.86-6.96,19.09-3.22C71.76,157.2,93.49,151.12,111.66,137.62z"/>
	<path class="st1" d="M107.92,176.31l-0.4,4.09l-1.82,18.81l-0.66,6.9c-5.91,4.55-15.12,10.12-24.89,10.24
		c-1.36,0.02-2.74-0.07-4.11-0.28c-10.5-1.62-21.17,6.99-28.27,14.49c-0.25-0.06-0.49-0.12-0.73-0.18
		c-0.15-0.04-0.31-0.08-0.46-0.12c-0.41-0.1-0.81-0.21-1.21-0.31c-2.85-0.79-4.96-3.2-5.39-6.11c-0.02-0.11-0.03-0.22-0.04-0.34
		c-0.88-8.3-1.76-16.59-2.64-24.88c4.82-2.69,10.58-3.96,17.28-2.36c8.8,2.1,17.97,0.71,26.45-2.48
		C91.87,189.72,101.57,182.71,107.92,176.31z"/>
	<path class="st2" d="M114.79,105.14l-1.64,17.02l-1.49,15.45l-3.34,34.55l-0.4,4.15l-0.4,4.09l-1.82,18.81l-0.66,6.9l-1.68,17.38
		c-0.29,3-2.36,5.52-5.23,6.41c-1.27,0.35-2.61,0.68-4.03,1.01c-0.47,0.11-0.95,0.21-1.44,0.31c-0.32,0.07-0.64,0.14-0.97,0.2
		c-0.37,0.08-0.74,0.15-1.11,0.22c-0.82,0.15-1.67,0.31-2.53,0.45c-0.33,0.05-0.66,0.11-0.99,0.16c-0.41,0.06-0.82,0.12-1.24,0.18
		c-0.39,0.06-0.77,0.11-1.17,0.16c-0.39,0.05-0.79,0.1-1.2,0.15c-0.36,0.04-0.71,0.08-1.07,0.12c-0.94,0.1-1.91,0.19-2.89,0.26
		l0.66-16.77l0.89-22.58l2.64-67.08c-3.93,0.28-8.03,0.43-12.3,0.44c-1.28,0-2.55-0.01-3.8-0.04c-10.08-0.2-19.18-1.23-27.09-2.6
		c-4.09-0.71-7.87-1.51-11.29-2.33c-0.6-5.68-1.21-11.35-1.81-17.03H114.79z"/>
	<path class="st3" d="M115.66,117.55c-2.41,0.38-4.91,0.74-7.48,1.08c-0.71,0.09-1.42,0.18-2.14,0.27
		c-7.59,0.93-15.8,1.64-24.57,1.95c-1.13,0.04-2.27,0.08-3.42,0.11c-2.27,0.06-4.57,0.08-6.9,0.08c-16.78,0-31.8-1.47-44.62-3.49
		c-3.12-0.49-5.1-3.62-4.21-6.66c1.69-5.72,3.37-11.44,5.05-17.17c11.75-2.43,26.59-4.48,43.77-4.48c9.13,0,17.61,0.59,25.3,1.5
		c1.61,0.19,3.19,0.4,4.74,0.62c4.9,0.69,9.44,1.5,13.6,2.36c1.69,5.72,3.38,11.44,5.07,17.16
		C120.76,113.92,118.79,117.06,115.66,117.55z"/>
	<path class="st4" d="M106.05,118.9c-7.59,0.93-15.8,1.64-24.57,1.95c-1.13,0.04-2.27,0.08-3.42,0.11l-0.8-28.57l19.2-1.64
		l4.48-0.38l0.26,1L106.05,118.9z"/>
	<path class="st5" d="M114.79,93.72c-47.44,13.6-87.4,0-87.4,0c11.75-2.43,26.59-4.48,43.77-4.48
		C88.28,89.26,103.07,91.3,114.79,93.72z"/>
	<path class="st3" d="M107.91,92.5c-4.62,0.74-9.69,1.4-15.18,1.9c-6.21,0.57-12.96,0.95-20.15,0.99c-0.48,0-0.96,0-1.44,0
		c-14.18,0-26.62-1.28-36.86-2.9c1.63-4.93,3.27-9.86,4.9-14.79h63.8L107.91,92.5z"/>
	<path class="st4" d="M92.72,94.41c-6.21,0.57-12.96,0.95-20.15,0.99l-0.51-16.79l18.96-0.9L92.72,94.41z"/>
	<path class="st5" d="M102.98,77.72c0,1.05-14.28,1.9-31.9,1.9c-17.62,0-31.9-0.85-31.9-1.9c0-1.05,14.28-1.9,31.9-1.9
		C88.7,75.81,102.98,76.67,102.98,77.72z"/>
	<ellipse class="st6" cx="82.8" cy="77.91" rx="5.77" ry="0.86"/>
	<g>
		<polygon class="st5" points="96.47,7.97 85.7,78.65 79.05,77.76 89.83,6.96 		"/>
		<path class="st0" d="M86.44,73.82l-0.74,4.84c-1.02,0.08-2.14,0.13-3.34,0.11c-1.24-0.02-2.39-0.1-3.44-0.22
			c0.11-0.72,0.22-1.43,0.33-2.15L86.44,73.82z"/>
		<polygon class="st0" points="87.85,64.55 87.04,69.91 79.85,72.48 80.66,67.13 		"/>
		<polygon class="st0" points="89.26,55.29 88.45,60.64 81.26,63.22 82.08,57.87 		"/>
		<polygon class="st0" points="90.67,46.03 89.86,51.38 82.67,53.96 83.49,48.61 		"/>
		<polygon class="st0" points="92.09,36.76 91.27,42.12 84.08,44.69 84.9,39.34 		"/>
		<polygon class="st0" points="93.5,27.5 92.68,32.85 85.49,35.43 86.31,30.08 		"/>
		<polygon class="st0" points="94.91,18.24 94.09,23.59 86.91,26.17 87.72,20.82 		"/>
		<polygon class="st0" points="96.32,8.98 95.5,14.33 88.32,16.9 89.13,11.55 		"/>
		<path class="st5" d="M96.47,7.97L85.7,78.65c-0.47,0.04-0.95,0.07-1.46,0.09c-0.48,0.02-0.94,0.03-1.39,0.02
			c3.62-23.74,7.23-47.48,10.85-71.22L96.47,7.97z"/>
	</g>
	<path class="st7" d="M67.25,105.83c-26.57,0-37.83-5.42-38.32-5.66c-0.65-0.32-0.92-1.12-0.6-1.77c0.32-0.65,1.12-0.92,1.77-0.6
		l0,0c0.12,0.06,12.36,5.89,40.95,5.35c0.01,0,0.02,0,0.03,0c0.72,0,1.31,0.58,1.32,1.3c0.01,0.73-0.57,1.33-1.3,1.35
		C69.79,105.82,68.5,105.83,67.25,105.83z"/>
	<path class="st7" d="M60.8,84.98c-12.02,0-20.23-2.06-20.64-2.17c-0.71-0.18-1.13-0.9-0.95-1.61c0.18-0.71,0.9-1.13,1.61-0.95
		c0.12,0.03,12.2,3.06,28.22,1.75c0.73-0.06,1.37,0.48,1.43,1.21c0.06,0.73-0.48,1.37-1.21,1.43C66.28,84.88,63.45,84.98,60.8,84.98
		z"/>
	<path class="st6" d="M96.47,8.01c-0.05,0.34-1.58,0.39-3.41,0.1c-1.83-0.29-3.28-0.81-3.23-1.15c0.05-0.34,1.59-0.38,3.42-0.09
		C95.08,7.16,96.52,7.67,96.47,8.01z"/>
	<path class="st8" d="M70.85,233.43c-8.96-0.07-16.76-1.33-23.05-2.85L40.49,124.5c7.91,1.37,17.01,2.4,27.09,2.6L70.85,233.43z"/>
</g>
<g>
	<path class="st9" d="M290.62,83.66c-0.39,6.37-0.78,12.73-1.17,19.1c-1.82,29.67-3.63,59.35-5.44,89.02
		c-0.39,6.35-0.78,12.7-1.17,19.05c-0.1,1.69-0.21,3.38-0.31,5.07c-0.33,5.42,2.9,10.41,7.97,12.36c7.91,3.04,17.7,5.99,29.11,7.74
		c11.47,1.77,21.74,1.9,30.22,1.37c2.07-0.13,4.01-0.77,5.69-1.8c2.64-1.62,4.64-4.22,5.48-7.35l1.37-5.09l27.95-103.66l5.28-19.57
		L290.62,83.66z"/>
	<path class="st10" d="M397.01,90.76c0,0,1.59-6.08-4.81-7.45c0,0,0.87-9.31-7.8-10.65c0,0-0.19-6.07-6.22-4.93
		c0,0,1.07-7.76-8.71-8.57c0,0-4.37-9.31-14.32-3.58c0,0-3.04-8.4-10.64-4.48c0,0-10.69-6.56-15.38,4.23c0,0-5.91-6.77-12.7-1.4
		c0,0-5.64-0.87-6.03,5.3c0,0-5.42-2.35-7.91,3.12c0,0-5.23-1.19-5.62,4.99c0,0-5.82,1.93-4.82,7.19c0,0,15.05,9.69,49.63,15.03
		C376.26,94.92,397.01,90.76,397.01,90.76z"/>
	<path class="st11" d="M393.97,90.29c0,0,2.67-8.09-4.81-10.52c0,0-2.46-7.29-10.35-3.16c-6.47,3.39-2.98,7.37-2.98,7.37
		s-6.27,0.27-7.84,5.83C365.81,97.52,393.97,90.29,393.97,90.29z"/>
	<path class="st11" d="M340.69,78.56c0,0,5.12,1.76,3.44,6.57c-1.93,5.53-10.59-0.65-10.59-0.65s-10.83,0.45-6.79-6.43
		c0,0-2.74-1.52-0.66-4.9c2.08-3.38,6.46-4.26,8.87,0.36C334.95,73.52,340.73,71.86,340.69,78.56z"/>
	<path class="st12" d="M344.45,52.13c0,0,3.38,1.17,2.27,4.34c-1.27,3.65-6.99-0.43-6.99-0.43s-7.15,0.3-4.49-4.25
		c0,0-1.81-1-0.44-3.23s4.27-2.81,5.85,0.24C340.66,48.8,344.48,47.7,344.45,52.13z"/>
	<path class="st11" d="M358.11,70.71c0,0,5.12,1.76,3.44,6.57c-1.93,5.53-10.59-0.65-10.59-0.65s-10.83,0.45-6.79-6.43
		c0,0-2.74-1.52-0.66-4.9c2.08-3.38,6.46-4.26,8.87,0.36C352.38,65.66,358.16,64,358.11,70.71z"/>
	<path class="st13" d="M370.35,56.51c0,0,5.12,1.76,3.44,6.57c-1.93,5.53-10.59-0.65-10.59-0.65s-10.83,0.45-6.79-6.43
		c0,0-2.74-1.52-0.66-4.9c2.08-3.38,6.46-4.26,8.87,0.36C364.61,51.47,370.39,49.81,370.35,56.51z"/>
	<path class="st13" d="M323.73,63.72c0,0-4.22,3.4-7.4-0.58c-3.65-4.57,6.18-8.62,6.18-8.62s1.83-7.75,9.06-2.33
		c0,0,2.74-1.51,4.5,2.05c1.76,3.56,0.17,7.74-5.02,7.32C331.06,61.55,329.39,67.32,323.73,63.72z"/>
	<path class="st11" d="M348.76,49.94c0,0,6.27-4.34,7.29,5.5c0,0,3.62,1.64,2.29,5.97s-8.57,3.07-10.63,1.47c0,0-5.2,1.32-6.13-3.64
		c-0.93-4.96,2.42-4.78,2.42-4.78S341.83,48.71,348.76,49.94z"/>
	<path class="st14" d="M385.6,80.21c3.1-0.93,3.81,1.51,3.55,3.48c0,0,1.49-0.01,1.66,1.92c0.17,1.93-3.32,4.46-5.63-0.17
		c0,0-1.88,1.34-3.25-0.51c-1.38-1.86,0.43-2.41,0.43-2.41c-0.46-0.91-0.17-2.02,0.65-2.58C383.82,79.39,384.92,79.5,385.6,80.21z"
		/>
	<path class="st12" d="M387.13,71.35c0,0,4.47-3.1,5.21,3.93c0,0,2.58,1.17,1.63,4.26c-0.95,3.09-6.18,2.8-7.41,0.35
		c0,0-3.88,1.65-4.55-1.89c-0.67-3.54,1.73-3.41,1.73-3.41S382.19,70.47,387.13,71.35z"/>
	<path class="st12" d="M347.9,57.4c0,0,3.62-2.5,4.21,3.18c0,0,2.09,0.95,1.32,3.45c-0.77,2.5-4.95,1.77-6.14,0.85
		c0,0-3,0.76-3.54-2.1s1.4-2.76,1.4-2.76S343.9,56.68,347.9,57.4z"/>
	<path class="st12" d="M319.33,70.99c0,0,5.42-3.75,6.31,4.76c0,0,3.13,1.42,1.98,5.17c-1.15,3.74-7.42,2.65-9.19,1.27
		c0,0-4.5,1.14-5.3-3.15s2.09-4.13,2.09-4.13S313.34,69.92,319.33,70.99z"/>
	<path class="st13" d="M368.74,76.05c0,0,6.27-4.34,7.29,5.5c0,0,3.62,1.64,2.29,5.97c-1.33,4.33-8.57,3.07-10.63,1.47
		c0,0-5.2,1.32-6.13-3.64c-0.93-4.96,2.42-4.78,2.42-4.78S361.82,74.81,368.74,76.05z"/>
	<path class="st13" d="M304.8,79.03c0,0-7.53-1.19-1.48-9.02c0,0-1.48-3.69,2.47-5.9c3.95-2.21,8.32,3.7,8.71,6.27
		c0,0,4.67,2.63,1.92,6.86c-2.75,4.23-5.05,1.79-5.05,1.79S308.96,84.7,304.8,79.03z"/>
	<path class="st11" d="M318.43,60.77c0,0,5.13,3.97,1.7,8.48c-3.08,4.05-13.03,2.09-11.33-4.3c0,0-5.53-1.72-3.15-7.51
		c2.38-5.79,6.21-0.24,6.21-0.24S317.95,52.91,318.43,60.77z"/>
	<path class="st11" d="M373.87,65.75c0,0,6.13-1.79,6.09,3.96c0,0,3.1,3.12-1.32,4.23c0,0-2.22,4.57-5.53-0.86
		c0,0-7.44,2.4-6.08-4.62C368.44,61.23,373.87,65.75,373.87,65.75z"/>
	<path class="st14" d="M333.89,78.07c3.1-0.93,3.81,1.51,3.55,3.48c0,0,1.49-0.01,1.66,1.92c0.17,1.93-3.32,4.46-5.63-0.17
		c0,0-1.88,1.34-3.25-0.51c-1.38-1.86,0.43-2.41,0.43-2.41c-0.46-0.91-0.17-2.02,0.65-2.58C332.1,77.25,333.2,77.36,333.89,78.07z"
		/>
	<path class="st14" d="M311.17,59.75c0,0-2.4-1.2-2.41,1.36c0,0-2.63,1.71,0.1,3.31c0,0,0.17,4.11,3.6,1.9c0,0,1.65,1.92,2.83-0.5
		c1.18-2.42-1.09-3.71-1.89-3.51C313.41,62.32,314.18,59.09,311.17,59.75z"/>
	<path class="st13" d="M341.85,72.59c0,0,6.13-1.79,6.09,3.96c0,0,3.1,3.12-1.32,4.23c0,0-2.22,4.57-5.53-0.86
		c0,0-7.44,2.4-6.08-4.62C336.41,68.07,341.85,72.59,341.85,72.59z"/>
	<path class="st14" d="M364.7,61.15c-2.83,1.58-4.05-0.64-4.23-2.62c0,0-1.45,0.34-2.04-1.51c-0.59-1.85,2.26-5.08,5.53-1.06
		c0,0,1.54-1.72,3.29-0.21c1.75,1.51,0.11,2.44,0.11,2.44c0.65,0.78,0.61,1.93-0.07,2.66C366.62,61.56,365.52,61.69,364.7,61.15z"/>
	<path class="st12" d="M366.76,62.9c4.43-0.26,4.6,3.21,3.64,5.76c0,0,1.99,0.45,1.62,3.08c-0.37,2.63-5.82,4.91-7.45-2
		c0,0-2.92,1.2-4.17-1.71c-1.25-2.91,1.33-3.08,1.33-3.08c-0.33-1.35,0.4-2.74,1.68-3.23C364.64,61.25,366.07,61.75,366.76,62.9z"/>
	<path class="st12" d="M330.36,68.58c1.29-4.24,4.61-3.2,6.66-1.42c0,0,1.11-1.71,3.45-0.45c2.34,1.27,2.58,7.17-4.46,6.29
		c0,0,0.11,3.16-3.05,3.32c-3.16,0.16-2.42-2.31-2.42-2.31c-1.38-0.16-2.43-1.33-2.45-2.7C328.07,70,329.03,68.83,330.36,68.58z"/>
	<path class="st12" d="M365.31,87.6c-2.73,3.5-5.45,1.34-6.73-1.06c0,0-1.65,1.2-3.38-0.82c-1.73-2.02,0.16-7.61,6.42-4.27
		c0,0,1.03-2.99,4.04-2.01c3.01,0.98,1.44,3.03,1.44,3.03c1.23,0.65,1.79,2.11,1.32,3.4C367.96,87.1,366.64,87.85,365.31,87.6z"/>
	<path class="st14" d="M352.15,74.3c-2.83,1.58-4.05-0.64-4.23-2.62c0,0-1.45,0.34-2.04-1.51c-0.59-1.85,2.26-5.08,5.53-1.06
		c0,0,1.54-1.72,3.29-0.21c1.75,1.51,0.11,2.44,0.11,2.44c0.65,0.78,0.61,1.93-0.07,2.66C354.07,74.71,352.97,74.84,352.15,74.3z"/>
	<path class="st12" d="M300.28,59.21c3.49-2.75,5.61,0,6.28,2.64c0,0,1.89-0.77,3.09,1.6c1.2,2.37-1.97,7.36-7.25,2.62
		c0,0-1.71,2.66-4.4,0.99c-2.69-1.67-0.67-3.28-0.67-3.28c-1.04-0.92-1.24-2.48-0.47-3.61C297.6,59.06,299.05,58.65,300.28,59.21z"
		/>
	<g>
		
			<rect x="324.88" y="91.79" transform="matrix(-0.9883 -0.1528 0.1528 -0.9883 632.3195 372.6766)" class="st15" width="11.2" height="140.52"/>
		<polygon class="st15" points="331.07,232.1 338.77,230.55 367.11,95.48 356.04,93.77 		"/>
		<polygon class="st15" points="346.37,229.65 352.11,229.4 381.81,97.37 373.07,96.01 		"/>
		<path class="st15" d="M355.52,235.56c2.64-1.62,4.64-4.22,5.48-7.35l1.37-5.09L395.6,99.89l-6.12-0.95L356.6,231.23
			C356.6,231.23,356.03,233.07,355.52,235.56z"/>
		<polygon class="st15" points="307.43,228.45 300.56,224.65 314.33,87.33 325.39,89.04 		"/>
		<polygon class="st15" points="295.25,221.75 289.85,219.77 301.4,84.94 310.15,86.29 		"/>
		<path class="st15" d="M290.62,83.66c-2.21,36.04-4.41,72.08-6.61,108.12l-1.17,19.05l0.11,5.32c-0.14,3.24,0.98,6.32,3.01,8.66
			c0.26-2.53,0.27-4.45,0.27-4.45l8.6-136.04L290.62,83.66z"/>
	</g>
	<path class="st16" d="M290.62,83.66c-0.39,6.37-0.78,12.73-1.17,19.1c11.44-2.81,28.62-4.94,50.43-1.57
		c23.59,3.65,40.33,11.83,50.44,18.27l5.28-19.57L290.62,83.66z"/>
	<g>
		<path class="st9" d="M286.73,79.56c0.2,2.05,1.77,3.77,3.89,4.1c15.62,4.08,33.05,7.85,52.1,10.79
			c19.01,2.94,36.72,4.6,52.81,5.43c2.26,0.03,4.32-1,5.03-2.74c1.18-2.9-0.66-5.93-3.55-6.38c-16.62-1.39-34.32-3.41-52.94-6.3
			c-18.49-2.86-35.86-6.25-52.02-9.93c-0.39-0.07-1.56-0.2-2.84,0.43c-0.86,0.42-1.58,1.11-2.01,2.01
			C286.78,77.85,286.64,78.73,286.73,79.56z"/>
		<path class="st17" d="M286.73,79.56c0.2,2.05,1.77,3.77,3.89,4.1c15.62,4.08,33.05,7.85,52.1,10.79
			c19.01,2.94,36.72,4.6,52.81,5.43c2.26,0.03,4.32-1,5.03-2.74c-17.24-0.96-36.08-2.76-56.22-5.84
			c-20.99-3.2-40.24-7.31-57.56-11.75C286.76,79.55,286.75,79.56,286.73,79.56z"/>
	</g>
	<path class="st17" d="M282.84,210.83c-0.1,1.69-0.21,3.38-0.31,5.07c-0.33,5.42,2.9,10.41,7.97,12.36
		c7.91,3.04,17.7,5.99,29.11,7.74c11.47,1.77,21.74,1.9,30.22,1.37c5.3-0.33,9.79-4.03,11.17-9.15l1.37-5.09
		c-9.02,1.84-23.14,3.61-40.09,1.11C304.53,221.61,291.04,215.39,282.84,210.83z"/>
	<g>
		
			<ellipse transform="matrix(0.1528 -0.9883 0.9883 0.1528 131.6214 457.5266)" class="st18" cx="332.65" cy="152" rx="28.74" ry="31.02"/>
		<path class="st15" d="M327.78,183.51c-18.62-2.88-31.58-19.36-28.89-36.73l0,0c2.69-17.38,20.02-29.17,38.64-26.29
			c8.97,1.39,16.92,5.94,22.38,12.82c5.51,6.95,7.83,15.44,6.52,23.91c-1.31,8.46-6.08,15.86-13.43,20.82
			c-5.2,3.51-11.24,5.5-17.55,5.85C332.91,184.03,330.35,183.91,327.78,183.51z M305.11,147.74L305.11,147.74
			c-2.16,13.94,8.45,27.2,23.63,29.55c7.4,1.14,14.76-0.44,20.72-4.47c5.88-3.97,9.7-9.86,10.73-16.57
			c1.04-6.71-0.82-13.47-5.23-19.03c-4.47-5.64-11-9.37-18.4-10.51c-2.13-0.33-4.24-0.43-6.29-0.31
			C317.65,127.1,306.96,135.75,305.11,147.74z"/>
	</g>
	<g>
		<path class="st15" d="M344.12,151.38l0.77-5.01l-0.28-0.04c-1.47-0.23-2.55-0.86-3.23-1.89c-0.68-1.03-0.9-2.35-0.65-3.96
			c0.27-1.72,0.83-2.94,1.7-3.68c0.87-0.73,2.05-0.99,3.56-0.75l3.37,0.52l-2.36,15.26L344.12,151.38z M344.5,138.86
			c-0.4,0.4-0.67,1.06-0.81,1.98c-0.14,0.94-0.09,1.67,0.15,2.21c0.25,0.53,0.68,0.85,1.3,0.95l0.11,0.02l0.87-5.63
			C345.44,138.3,344.9,138.46,344.5,138.86z"/>
		<path class="st15" d="M332.17,135.61c0.91-1.2,2.13-1.68,3.66-1.44c1.5,0.23,2.51,1.05,3.02,2.44c0.52,1.4,0.56,3.45,0.14,6.16
			c-0.42,2.7-1.08,4.65-2,5.83c-0.91,1.18-2.12,1.65-3.62,1.42c-1.47-0.23-2.48-1.03-3.02-2.41c-0.54-1.38-0.61-3.35-0.21-5.91
			C330.59,138.84,331.27,136.81,332.17,135.61z M336.38,137.84c-0.09-0.82-0.39-1.26-0.91-1.34c-0.51-0.08-0.94,0.27-1.28,1.04
			c-0.34,0.78-0.67,2.19-0.99,4.25c-0.32,2.09-0.44,3.54-0.35,4.36c0.09,0.82,0.4,1.27,0.92,1.35c0.51,0.08,0.94-0.26,1.27-1.02
			c0.33-0.76,0.66-2.18,0.99-4.27C336.35,140.12,336.47,138.66,336.38,137.84z"/>
		<path class="st15" d="M324.06,148.28l0.77-5.01l-0.28-0.04c-1.47-0.23-2.55-0.86-3.23-1.89c-0.68-1.03-0.9-2.35-0.65-3.96
			c0.27-1.72,0.83-2.94,1.7-3.68c0.87-0.73,2.05-0.99,3.56-0.75l3.37,0.52l-2.36,15.26L324.06,148.28z M324.44,135.76
			c-0.4,0.4-0.67,1.06-0.81,1.98c-0.14,0.94-0.09,1.67,0.15,2.21c0.25,0.53,0.68,0.85,1.3,0.95l0.11,0.02l0.87-5.63
			C325.38,135.2,324.84,135.36,324.44,135.76z"/>
		<path class="st15" d="M345.57,162.78c-0.05,0.96,0.02,1.7,0.21,2.21c0.18,0.51,0.49,0.8,0.91,0.87c0.57,0.09,1.03-0.23,1.39-0.96
			c0.35-0.73,0.69-2.11,1-4.15c0.33-2.11,0.43-3.58,0.31-4.42c-0.12-0.83-0.48-1.29-1.07-1.38c-0.44-0.07-0.8,0.07-1.1,0.4
			c-0.29,0.34-0.54,0.91-0.73,1.72l-2.53-1.33c0.45-1.28,1.07-2.19,1.84-2.73c0.78-0.54,1.73-0.72,2.85-0.55
			c1.59,0.25,2.67,1.08,3.22,2.49c0.56,1.41,0.62,3.5,0.19,6.25c-0.41,2.66-1.08,4.58-2,5.75c-0.92,1.18-2.12,1.65-3.61,1.42
			c-1.21-0.19-2.12-0.71-2.75-1.58c-0.63-0.87-0.94-2.03-0.94-3.49L345.57,162.78z"/>
		<path class="st15" d="M335.23,152.42c0.91-1.2,2.13-1.68,3.66-1.44c1.5,0.23,2.51,1.05,3.02,2.44c0.52,1.4,0.56,3.45,0.14,6.16
			c-0.42,2.7-1.08,4.65-2,5.83c-0.91,1.18-2.12,1.65-3.62,1.42c-1.47-0.23-2.48-1.03-3.02-2.41c-0.54-1.38-0.61-3.35-0.21-5.91
			C333.65,155.65,334.32,153.61,335.23,152.42z M339.44,154.65c-0.09-0.82-0.39-1.26-0.91-1.34c-0.51-0.08-0.94,0.27-1.28,1.04
			c-0.34,0.78-0.67,2.19-0.99,4.24c-0.32,2.09-0.44,3.54-0.35,4.36c0.09,0.82,0.4,1.27,0.92,1.35c0.51,0.08,0.94-0.26,1.27-1.02
			c0.33-0.76,0.66-2.18,0.99-4.27C339.41,156.93,339.53,155.46,339.44,154.65z"/>
		<path class="st15" d="M327.17,165.09l1.11-7.19l-0.28-0.04l-3.63,6.8l-3-0.46l3.79-6.71c-0.73-0.38-1.26-0.93-1.58-1.67
			c-0.32-0.73-0.4-1.58-0.25-2.56c0.22-1.41,0.78-2.41,1.7-3.01c0.91-0.6,2.16-0.77,3.72-0.53l3.59,0.56L330,165.53L327.17,165.09z
			 M329.18,152.11l-0.3-0.05c-0.77-0.12-1.39-0.03-1.84,0.26c-0.45,0.29-0.74,0.78-0.84,1.47c-0.11,0.69,0.01,1.26,0.36,1.7
			c0.35,0.44,0.89,0.72,1.63,0.84c0.04,0.01,0.09,0.01,0.17,0.02c0.07,0,0.13,0.01,0.17,0.02L329.18,152.11z"/>
		<path class="st15" d="M316.92,163.5l0.57-3.72c0.15-0.96,0.4-2.16,0.74-3.58c0.34-1.42,0.77-3.04,1.28-4.83l-0.17-0.03
			c-0.45,1.38-1.09,2.97-1.92,4.78c-0.1,0.22-0.17,0.37-0.21,0.47l-2.97,6.5l-2.83-0.44l2.36-15.26l2.61,0.4l-0.69,4.5
			c-0.11,0.7-0.34,1.74-0.69,3.15c-0.35,1.4-0.79,3.01-1.31,4.83l0.19,0.03c0.5-1.31,0.92-2.41,1.27-3.29
			c0.35-0.88,0.6-1.49,0.76-1.83l3.1-6.97l2.89,0.45l-2.36,15.26L316.92,163.5z"/>
	</g>
	<path class="st14" d="M330.43,58.19c0,0,1.83-2.06-0.71-2.75c0,0-0.99-3.07-3.31-0.78c0,0-4.12-0.93-2.85,3.06
		c0,0-2.35,1.13-0.27,2.94c2.08,1.82,3.97-0.09,3.99-0.94C327.29,59.72,330.29,61.34,330.43,58.19z"/>
	<path class="st14" d="M301.95,61.01c0,0-1.52-0.76-1.53,0.86c0,0-1.67,1.08,0.07,2.1c0,0,0.11,2.6,2.28,1.2c0,0,1.05,1.22,1.8-0.31
		c0.75-1.53-0.69-2.35-1.2-2.23C303.37,62.64,303.85,60.59,301.95,61.01z"/>
	<path class="st14" d="M347.87,59.49c0,0-1.56-0.49-1.32,1.05c0,0-1.42,1.28,0.38,1.98c0,0,0.5,2.45,2.35,0.8c0,0,1.18,1,1.66-0.57
		c0.48-1.57-1.01-2.13-1.47-1.93C349.46,60.81,349.61,58.8,347.87,59.49z"/>
	<path class="st14" d="M387.27,74.22c0,0-1.55-0.73-1.31,0.81c0,0-1.42,1.28,0.38,1.98c0,0,0.5,2.45,2.35,0.8c0,0,1.18,1,1.66-0.57
		c0.48-1.57-1.01-2.13-1.47-1.93C388.87,75.31,389.22,73.4,387.27,74.22z"/>
	<path class="st13" d="M366.49,13.45c0,0-5.36-0.83-4.55-5.86c0.92-5.78,10.54-1.24,10.54-1.24s6.96-3.87,7.83,5.13
		c0,0,2.96,1.01,1.52,4.7s-5.61,5.34-8.79,1.21C373.03,17.4,367.63,20.06,366.49,13.45z"/>
	<path class="st14" d="M375.09,14.68c0,0,2.75-0.04,1.56-2.38c0,0,1.6-2.79-1.65-2.97c0,0-2.09-3.67-4.18-0.04
		c0,0-2.41-0.98-2.35,1.78c0.06,2.76,2.74,2.88,3.38,2.32C371.84,13.39,372.66,16.69,375.09,14.68z"/>
	<path class="st11" d="M396.76,46.93c0,0,3.02,1.9,0.83,4.32c-2.53,2.78-6.92-2.24-6.92-2.24s-7.33-1.67-3.1-4.84
		c0,0-1.49-1.34,0.66-2.88c2.14-1.54,5.27-1.26,5.84,1.77C394.06,43.07,398.29,43.16,396.76,46.93z"/>
	<path class="st14" d="M393.6,44.05c2.28,0.03,2.2,1.53,1.59,2.59c0,0,1,0.26,0.68,1.38c-0.32,1.12-3.21,1.93-3.72-1.1
		c0,0-1.55,0.43-2.05-0.87c-0.5-1.29,0.82-1.28,0.82-1.28c-0.1-0.59,0.34-1.17,1.01-1.34C392.6,43.27,393.31,43.53,393.6,44.05z"/>
	<path class="st12" d="M336.75,42.58c0,0-4.39,0.29-1.99-4.89c0,0-1.31-1.89,0.64-3.64c1.94-1.75,5.16,1.02,5.71,2.42
		c0,0,2.97,0.88,1.96,3.62c-1.01,2.74-2.62,1.65-2.62,1.65S339.82,45.25,336.75,42.58z"/>
	<path class="st14" d="M337.85,40.81c0,0,1.09,1.22,1.67-0.23c0,0,1.87-0.37,0.69-1.89c0,0,0.83-2.36-1.6-1.89
		c0,0-0.5-1.46-1.71-0.36c-1.21,1.1-0.22,2.35,0.28,2.41C337.17,38.85,336.01,40.5,337.85,40.81z"/>
</g>
<path class="st19" d="M179.39,74.21c-12.81-11.66-35.11-15.9-53.83,2.36l-63.19,62.97v44.81l76.17-94.59
	c8.7-10.26,22.07-7.6,28.39-1.85c4.3,3.9,5.48,9.14,3.69,14.57c-0.3,0.9-0.54,1.72-0.75,2.5l12.51,7.17
	c0.01-0.04,0.04-0.06,0.07-0.1C191.79,100.44,192.01,85.7,179.39,74.21z"/>
<path class="st20" d="M176.87,69.01c-12.82-11.66-35.1-15.9-53.84,2.36l-62.67,62.47l3.2,4.52l62-61.79
	c18.72-18.26,41.03-14.02,53.83-2.36c2.43,2.21,4.38,4.55,5.88,6.97C183.77,76.92,181.03,72.79,176.87,69.01z"/>
<path class="st19" d="M226.41,74.21c12.8-11.66,35.1-15.9,53.83,2.36l63.19,62.97v44.81l-76.17-94.59
	c-8.71-10.26-22.08-7.6-28.4-1.85c-4.29,3.9-5.47,9.14-3.69,14.57c0.3,0.9,0.55,1.72,0.76,2.5l-12.5,7.17
	c-0.03-0.04-0.06-0.06-0.07-0.1C214,100.44,213.77,85.7,226.41,74.21z"/>
<path class="st21" d="M228.92,69.01c12.81-11.66,35.1-15.9,53.83,2.36l62.68,62.47l-3.2,4.52l-62-61.79
	c-18.73-18.26-41.03-14.02-53.83-2.36c-2.44,2.21-4.39,4.55-5.89,6.97C222.02,76.92,224.76,72.79,228.92,69.01z"/>
<polygon class="st22" points="305.49,218.15 339.19,184.46 339.19,163.79 284.83,218.15 "/>
<path class="st19" d="M335.7,126.8H70.09c-11.47,0-20.84,9.37-20.84,20.83v67.7c0,11.46,9.37,20.83,20.84,20.83h93.74
	c23.2-3.06,22.45-47.41,35.49-56.28c0.99-0.67,5.86-0.97,7.49,0.24c12.71,9.37,12.15,53,35.15,56.04h93.74
	c11.46,0,20.83-9.37,20.83-20.83v-67.7C356.53,136.17,347.15,126.8,335.7,126.8z"/>
<path class="st23" d="M169.92,199.92c0,10.02-8.2,18.23-18.23,18.23H84.83c-10.01,0-18.22-8.2-18.22-18.23v-36.89
	c0-10.02,8.21-18.23,18.22-18.23h66.87c10.03,0,18.23,8.2,18.23,18.23V199.92z"/>
<path class="st15" d="M339.19,199.92c0,10.02-8.2,18.23-18.23,18.23h-66.87c-10.02,0-18.23-8.2-18.23-18.23v-36.89
	c0-10.02,8.21-18.23,18.23-18.23h66.87c10.03,0,18.23,8.2,18.23,18.23V199.92z"/>
<path class="st21" d="M65.87,132.87h274.04c5.59,0,10.68,2.18,14.52,5.7c-3.39-6.95-10.52-11.78-18.73-11.78H70.09
	c-8.21,0-15.35,4.83-18.73,11.78C55.19,135.05,60.29,132.87,65.87,132.87z"/>
</svg>
