<?xml version="1.0" encoding="utf-8"?>
<!-- Generator: Adobe Illustrator 22.0.0, SVG Export Plug-In . SVG Version: 6.00 Build 0)  -->
<svg version="1.1" id="Capa_1" xmlns="http://www.w3.org/2000/svg" xmlns:xlink="http://www.w3.org/1999/xlink" x="0px" y="0px"
	 viewBox="0 0 378.1 562.1" style="enable-background:new 0 0 378.1 562.1;" xml:space="preserve">
<style type="text/css">
	.st0{fill:#B21622;}
</style>
<rect x="-452" y="-54" transform="matrix(0.7071 0.7071 -0.7071 0.7071 -159.3215 299.1361)" class="st0" width="22.5" height="22.5"/>
<g>
	<g>
		<g>
			<path class="st0" d="M107,120.4h166.4c3.2-0.2,5.8-2.8,6-6c0.2-3.5-2.5-6.5-6-6.7H107c-0.3,0-0.5,0-0.8,0c-3.5,0.2-6.2,3.2-6,6.7
				C100.4,117.9,103.5,120.6,107,120.4z"/>
			<path class="st0" d="M123.7,355.8L123.7,355.8c-14.5,0-28.4,5.7-38.6,16c-10.2,10.2-16,24.1-16,38.6c0,30.2,24.5,54.6,54.6,54.6
				c30.2,0,54.6-24.5,54.6-54.6C178.3,380.2,153.9,355.8,123.7,355.8z M153.3,440.1c-16.4,16.4-42.9,16.4-59.3,0
				c-16.4-16.4-16.4-42.9,0-59.3c16.4-16.4,42.9-16.4,59.3,0v0c7.9,7.9,12.3,18.6,12.3,29.7C165.6,421.6,161.2,432.2,153.3,440.1z"
				/>
			<path class="st0" d="M316,190.2H64.3c-3.2,0.2-5.8,2.8-6,6c-0.2,3.5,2.5,6.5,6,6.7H316c3.2-0.2,5.8-2.8,6-6
				C322.2,193.4,319.5,190.4,316,190.2z"/>
			<path class="st0" d="M377.7,71.6l-0.2-0.5l-0.1-0.2v-0.1l-0.2-0.2L307.6,0.9l-0.4-0.4L307,0.4h-0.2l-0.3-0.1h-0.3
				c-0.5-0.2-1-0.3-1.5-0.3H23.2v0C10.4,0.1,0,10.4,0,23.2v426.4c0,12.8,10.4,23.1,23.2,23.2H73c1.6,2.7,3.6,5,6.1,7v74.5
				c-0.2,1.6,0.2,3.2,1.1,4.5c0,0,0,0,0,0c2.2,2.7,6.2,3.1,8.9,0.9l34-27.9l33.4,27.7c1.1,1,2.6,1.6,4.1,1.6c0,0,0.1,0,0.1,0
				c3.4-0.1,6.1-2.9,6-6.3v-73.8c3-2.2,5.6-5,7.6-8.1h180.5c6.2,0,12.1-2.5,16.4-6.8c4.4-4.3,6.8-10.2,6.8-16.4V73.4
				C378,72.8,377.9,72.2,377.7,71.6z M310.6,21.8l48,48l-37.5,0c-2.8,0-5.4-1.1-7.4-3.1c-2-2-3.1-4.6-3.1-7.4V21.8z M154.4,541.5
				L127,518.8c-2.3-1.9-5.7-1.9-8,0l-27.7,22.7v-56.1c0,0,8,1,12.5-1.4c4.9,5.9,12.1,9.2,19.7,9.3c7.6-0.2,14.7-3.6,19.7-9.3
				c2.3,0.9,4.7,1.4,7.2,1.5c1.3,0.1,2.6,0.1,3.9,0V541.5z M181.8,431.6c3.3,4.3,3.7,10.1,1.2,14.9c-2.5,4.4-7.4,6.9-12.4,6.4
				c-3.5-0.3-6.6,2.3-6.9,5.8c0.3,2.8-0.2,5.7-1.4,8.2c-2.4,4.6-7.2,7.3-12.4,6.9c-1.5-0.1-2.9-0.4-4.2-1h-0.1h-0.2h-0.2h-0.5h-0.1
				h-2.9c-1.2-0.7-2.5-1-3.9-0.7h-1.1l-0.4,0.2l-0.2,0.2l-0.2,0.2l-0.2,0.3h-0.1h-0.3c-1.3,2.8-3.5,5-6.3,6.3
				c-6.5,3-14.2,0.2-17.3-6.3c-1.5-3.2-5.2-4.5-8.4-3.1c-2.6,2.2-6,3.2-9.4,2.9c-7.2-0.6-12.5-7-11.9-14.1c0-0.4,0-0.8,0-1.2
				c-0.3-3.5-3.5-6.1-7-5.7c-3,0.2-6-0.6-8.5-2.3c-5.9-4.1-7.3-12.2-3.2-18.1c0.2-0.3,0.4-0.6,0.5-0.9c1.5-3.1,0.2-6.9-2.9-8.5
				c-2.7-1.3-4.9-3.5-6.2-6.2c-3.1-6.5-0.3-14.3,6.2-17.3c0.4-0.2,0.7-0.4,1-0.6c2.8-2.1,3.4-6,1.4-8.9c-1.7-2.5-2.5-5.5-2.2-8.5
				c0.6-7.1,6.9-12.4,14.1-11.8c0.4,0,0.8,0,1.2,0c3.5-0.3,6.1-3.5,5.7-7c-0.4-5,2.1-9.8,6.5-12.4c4.4-2.5,9.8-2.3,13.9,0.6
				c0.3,0.2,0.6,0.4,0.9,0.5c3.1,1.5,6.9,0.2,8.5-2.9c2.1-4.6,6.7-7.5,11.8-7.5v0c4.7,0.7,8.7,4,10.2,8.5c1.5,3.2,5.2,4.5,8.4,3.1
				c4.3-3.3,10.1-3.8,14.9-1.2c4.4,2.5,6.9,7.4,6.4,12.4c-0.3,3.5,2.3,6.6,5.8,6.9c2.8-0.3,5.7,0.2,8.2,1.4c0.5,0.3,1,0.6,1.4,0.9
				c5.9,4.1,7.3,12.2,3.2,18.1c-2,2.9-1.3,6.8,1.6,8.8c2.6,1.2,4.8,3,6.4,5.4c0.3,0.4,0.5,0.9,0.7,1.4c3.1,6.5,0.3,14.3-6.2,17.4
				C181.7,424.7,180.3,428.4,181.8,431.6z M367.6,449.8c0,2.8-1.1,5.4-3.1,7.4c-2,2-4.6,3.1-7.4,3.1H187.6v-0.1
				c9.8-6.6,13.8-19,9.7-30.1c1.2-1,2.4-2.2,3.4-3.4c9-10.9,7.5-27-3.4-36c0.6-1.5,1-3,1.2-4.6c2.4-14-7.1-27.2-21-29.6
				c-0.3-1.5-0.7-3-1.2-4.5c-4.9-13.3-19.7-20.1-32.9-15.2c-1-1.2-2.1-2.4-3.4-3.4c-10.9-9-27-7.5-36.1,3.4
				c-7.1-2.6-15-1.9-21.6,1.8c-6.6,3.8-11.2,10.3-12.5,17.8c-1.5,0.3-3,0.7-4.5,1.2c-13.3,4.9-20.1,19.7-15.2,33
				c-1.2,1-2.4,2.2-3.4,3.4c-9,10.9-7.5,27,3.4,36c-4.1,11.1-0.1,23.5,9.6,30.1H23.2c-5.8,0-10.5-4.7-10.5-10.5V23.2
				c0-5.8,4.7-10.5,10.5-10.5h274.6v46.7c0,6.1,2.5,12,6.8,16.4c4.3,4.3,10.2,6.8,16.3,6.8h46.6V449.8z"/>
			<path class="st0" d="M316,331.3H187.9c-0.3,0-0.5,0-0.8,0c-3.5,0.2-6.2,3.2-6,6.7s3.2,6.2,6.7,6H316c3.2-0.2,5.8-2.8,6-6
				C322.2,334.5,319.5,331.5,316,331.3z"/>
			<path class="st0" d="M321.9,309.8c0.2-3.5-2.5-6.5-6-6.7H64.3c-0.3,0-0.5,0-0.8,0c-3.5,0.2-6.2,3.2-6,6.7c0.2,3.5,3.2,6.2,6.7,6
				H316C319.2,315.6,321.7,313,321.9,309.8z"/>
			<path class="st0" d="M107,136.7c-3.2,0.2-5.8,2.8-6,6c-0.2,3.5,2.5,6.5,6,6.7h166.4c3.2-0.2,5.8-2.8,6-6c0.2-3.5-2.5-6.5-6-6.7
				H107z"/>
			<path class="st0" d="M64.3,287.5H316c3.2-0.2,5.8-2.8,6-6c0.2-3.5-2.5-6.5-6-6.7H64.3c-0.3,0-0.5,0-0.8,0c-3.5,0.2-6.2,3.2-6,6.7
				C57.8,285.1,60.8,287.7,64.3,287.5z"/>
			<path class="st0" d="M64.3,246.6c-3.2,0.2-5.8,2.8-6,6c-0.2,3.5,2.5,6.5,6,6.7H316c3.2-0.2,5.8-2.8,6-6c0.2-3.5-2.5-6.5-6-6.7
				H64.3z"/>
			<path class="st0" d="M316,218.4H64.3c-0.3,0-0.5,0-0.8,0c-3.5,0.2-6.2,3.2-6,6.7c0.2,3.5,3.2,6.2,6.7,6H316c3.2-0.2,5.8-2.8,6-6
				C322.2,221.6,319.5,218.6,316,218.4z"/>
		</g>
	</g>
</g>
</svg>
